<?xml version="1.0" standalone="no"?>
<!DOCTYPE svg PUBLIC "-//W3C//DTD SVG 20010904//EN"
 "http://www.w3.org/TR/2001/REC-SVG-20010904/DTD/svg10.dtd">
<svg version="1.0" xmlns="http://www.w3.org/2000/svg"
 width="48.000000pt" height="48.000000pt" viewBox="0 0 48.000000 48.000000"
 preserveAspectRatio="xMidYMid meet">

<g transform="translate(0.000000,48.000000) scale(0.100000,-0.100000)"
fill="#000000" stroke="none">
<path d="M142 418 c-14 -14 -16 -62 -2 -53 6 3 10 15 10 26 0 10 5 19 10 19 6
0 10 -9 10 -20 0 -11 5 -20 10 -20 14 0 13 33 -2 48 -7 7 -15 12 -18 12 -3 0
-11 -5 -18 -12z"/>
<path d="M252 418 c-15 -15 -16 -48 -2 -48 6 0 10 9 10 20 0 11 5 20 10 20 6
0 10 -9 10 -20 0 -11 5 -20 10 -20 14 0 13 33 -2 48 -7 7 -15 12 -18 12 -3 0
-11 -5 -18 -12z"/>
<path d="M120 340 c0 -6 40 -10 100 -10 60 0 100 4 100 10 0 6 -40 10 -100 10
-60 0 -100 -4 -100 -10z"/>
<path d="M90 308 c0 -3 -3 -13 -6 -21 -3 -10 5 -18 25 -25 25 -9 31 -8 31 4 0
7 9 14 20 14 11 0 20 -6 20 -14 0 -16 41 -29 64 -20 9 3 16 12 16 20 0 8 9 14
20 14 11 0 20 -7 20 -15 0 -11 5 -12 26 -5 38 15 69 12 87 -8 21 -23 21 -54 1
-94 -19 -36 -12 -73 16 -88 11 -6 20 -7 20 -1 0 5 -7 11 -15 15 -20 7 -19 47
2 90 23 50 5 92 -48 108 -22 6 -39 16 -39 22 0 7 -43 11 -130 11 -72 0 -130
-3 -130 -7z"/>
</g>
</svg>
